# xmcd CD database file
#
# Track frame offsets:
#	150
#	25299
#	59774
#	89870
#	113962
#	139391
#	161902
#
# Disc length: 2509 seconds
#
# Revision: 0
# Processed by: cddbd v1.5.1PL0 Copyright (c) Steve Scherf et al.
# Submitted via: CDex 1.51
#
DISCID=6e09cb07
DTITLE=Lou Donalson - Light foot
DYEAR=1958
DGENRE=Jazz
TTITLE0=Light Foot
TTITLE1=Hog Maw (False Start)
TTITLE2=Mary Ann
TTITLE3=Green Eyes
TTITLE4=Walking by the River
TTITLE5=Day Dreams
TTITLE6=Stella by Starlight
EXTD=YEAR: 1958
EXTT0=
EXTT1=
EXTT2=
EXTT3=
EXTT4=
EXTT5=
EXTT6=
PLAYORDER=
